<svg height="512pt" viewBox="0 -104 512 512" width="512pt" xmlns="http://www.w3.org/2000/svg"><path d="m497 257h-434c-8.285156 0-15-6.714844-15-15v-227c0-8.285156 6.714844-15 15-15h275.253906c41.160156 0 76.855469 20.28125 97.929688 55.644531l29.414062 49.359375c25.640625.320313 46.402344 21.277344 46.402344 46.996094v90c0 8.285156-6.714844 15-15 15zm0 0" fill="#62e3f8"/><path d="m465.597656 105.003906-29.414062-49.359375c-21.074219-35.363281-56.769532-55.644531-97.929688-55.644531h-58.253906v257h217c8.285156 0 15-6.714844 15-15v-90c0-25.71875-20.761719-46.675781-46.402344-46.996094zm0 0" fill="#00c0f1"/><g fill="#e1f6fd"><path d="m63 197h-48c-8.285156 0-15-6.714844-15-15s6.714844-15 15-15h48c8.285156 0 15 6.714844 15 15s-6.714844 15-15 15zm0 0"/><path d="m150 137h-135c-8.285156 0-15-6.714844-15-15s6.714844-15 15-15h135c8.285156 0 15 6.714844 15 15s-6.714844 15-15 15zm0 0"/><path d="m105.578125 78h-75.578125c-8.285156 0-15-6.714844-15-15s6.714844-15 15-15h75.578125c8.285156 0 15 6.714844 15 15s-6.714844 15-15 15zm0 0"/></g><path d="m436.183594 55.644531c-21.074219-35.363281-56.769532-55.644531-97.929688-55.644531h-3.378906v90c0 8.285156 6.714844 15 15 15h115.71875zm0 0" fill="#beebfa"/><path d="m149.5 288c23.40625 0 42.5-19.09375 42.5-42.5s-19.09375-42.5-42.5-42.5-42.5 19.09375-42.5 42.5 19.09375 42.5 42.5 42.5zm0 0" fill="#e1f6fd" fill-rule="evenodd"/><path d="m149.5 303c-31.707031 0-57.5-25.792969-57.5-57.5s25.792969-57.5 57.5-57.5 57.5 25.792969 57.5 57.5-25.792969 57.5-57.5 57.5zm0-85c-15.164062 0-27.5 12.335938-27.5 27.5s12.335938 27.5 27.5 27.5 27.5-12.335938 27.5-27.5-12.335938-27.5-27.5-27.5zm0 0" fill="#1751a9"/><path d="m414.5 288c23.40625 0 42.5-19.09375 42.5-42.5s-19.09375-42.5-42.5-42.5-42.5 19.09375-42.5 42.5 19.09375 42.5 42.5 42.5zm0 0" fill="#beebfa" fill-rule="evenodd"/><path d="m414.5 303c-31.707031 0-57.5-25.792969-57.5-57.5s25.792969-57.5 57.5-57.5 57.5 25.792969 57.5 57.5-25.792969 57.5-57.5 57.5zm0-85c-15.164062 0-27.5 12.335938-27.5 27.5s12.335938 27.5 27.5 27.5 27.5-12.335938 27.5-27.5-12.335938-27.5-27.5-27.5zm0 0" fill="#001a48"/></svg>